<svg xmlns="http://www.w3.org/2000/svg" viewBox="0 0 270 299"><defs><style>.cls-1{isolation:isolate;}.cls-2{fill:#159387;}.cls-3{fill:#138479;}.cls-4{fill:#8ac9c3;}.cls-4,.cls-5{fill-rule:evenodd;}.cls-5{fill:#fff;}</style></defs><title>Obszar roboczy 1</title><g id="Prostokąt_zaokrąglony_5" data-name="Prostokąt zaokrąglony 5" class="cls-1"><path class="cls-2" d="M263.84,223.85c8,4.59-128.71,83.43-128.71,74.24,0,9.19-136.69-69.65-128.72-74.24-8,4.59-8-153.1,0-148.5-8-4.6,128.72-83.44,128.72-74.25,0-9.19,136.68,69.65,128.71,74.25C271.81,70.75,271.81,228.44,263.84,223.85Z"/><path class="cls-3" d="M263.84,223.85c3,1.72,4.86-19.47,5.61-46.35h-.9v-1.22h-1.21v-1.21h-1.21v-1.21h-1.22v-1.22H263.7v-1.21h-1.21v-1.21h-1.22V169h-1.21v-1.21h-1.21v-1.21h-1.22v-1.22h-1.21v-1.21h-1.21v-1.21H254v-1.22h-1.21v-1.21h-1.21V159.3h-1.22v-1.22h-1.21v-1.21h-1.21v-1.21h-1.22v-1.22H245.5v-1.21h-1.21V152h-1.22V150.8h-1.21v-1.21h-1.21v-1.21h-1.22v-1.22h-1.21V146H237v-1.21h-1.22v-1.21h-1.21v-1.22h-1.21V141.1h-1.21v-1.21h-1.22v-1.22h-1.21v-1.21h-1.21v-1.21H227.3V135h-1.21v-1.21h-1.21v-1.21h-1.22v-1.22h-1.21v-1.21h-1.21V129H220v-1.22h-1.21v-1.21H217.6v-1.21h-1.22v-1.22h-1.21V122.9H214v-1.21H150.87v3l0,0c-.17-.18-.32-.37-.49-.55s-.48-.44-.72-.66-.32-.38-.5-.55-.48-.44-.71-.67-.32-.37-.5-.55-.48-.44-.72-.66-.32-.37-.49-.55l-.72-.66c-.17-.18-.32-.38-.5-.55s-.48-.44-.71-.67-.32-.37-.5-.55-.48-.44-.72-.66-.32-.37-.49-.55-.48-.44-.72-.66-.32-.38-.5-.55-.48-.44-.71-.67-.32-.37-.5-.54-.48-.45-.72-.67-.32-.37-.49-.55l-.72-.66c-.17-.18-.32-.38-.5-.55s-.47-.44-.71-.67-.32-.37-.5-.54a28.86,28.86,0,0,0-30.88-6.48l1.21,1.22h0l1.22,1.21h0l1.21,1.21h0l1.21,1.21h0l1.22,1.21h0l1.21,1.21h0l1.21,1.21h0l1.22,1.22h0l1.22,1.21h0l1.21,1.21h0l1.22,1.22h0l1.22,1.21h0l1.21,1.21h0l1.21,1.22h0l1.22,1.21h0l1.21,1.21h0l.26.26a2.1,2.1,0,0,1,.23,2.55c-.12-.1-.23-.2-.36-.29a4.79,4.79,0,0,0-3.91-2.08H116.9v2.43h-1.21v-1.21h-1.22v-1.22h-2.42v2.43h-1.22v-1.21h-1.21v-1.22h-2.43v2.43H106v-1.21h-1.21v-1.22H94l-4-4a28.93,28.93,0,0,0-1.32,4H84.14V122.9H82.93v-1.21H81.72v-1.22H80.5v-1.21H70.8v2.43H72v1.21h1.21v1.21h-9.7A4.86,4.86,0,0,0,58.67,129v41.25a4.84,4.84,0,0,0,2.08,4A5,5,0,0,0,62,175.41a4.84,4.84,0,0,0,1.22,1.21,4.84,4.84,0,0,0,1.21,1.22,5,5,0,0,0,1.21,1.21,4.84,4.84,0,0,0,1.22,1.21A5,5,0,0,0,68,181.48a5,5,0,0,0,1.21,1.21,4.84,4.84,0,0,0,1.22,1.21,4.8,4.8,0,0,0,1.21,1.21,4.84,4.84,0,0,0,1.21,1.22,4.84,4.84,0,0,0,1.22,1.21,5,5,0,0,0,1.21,1.21A4.84,4.84,0,0,0,76.52,190a4.84,4.84,0,0,0,1.22,1.21A5,5,0,0,0,79,192.39a4.84,4.84,0,0,0,1.21,1.22,4.84,4.84,0,0,0,1.22,1.21A5,5,0,0,0,82.59,196a4.84,4.84,0,0,0,1.21,1.22A4.84,4.84,0,0,0,85,198.46a5,5,0,0,0,1.21,1.21,4.84,4.84,0,0,0,1.21,1.22,4.84,4.84,0,0,0,1.22,1.21,4.8,4.8,0,0,0,1.21,1.21,4.84,4.84,0,0,0,1.21,1.22,5,5,0,0,0,1.21,1.21A5,5,0,0,0,93.51,207a4.84,4.84,0,0,0,1.21,1.22,5,5,0,0,0,1.21,1.21,4.84,4.84,0,0,0,1.22,1.21,4.84,4.84,0,0,0,1.21,1.22A5,5,0,0,0,99.57,213a4.84,4.84,0,0,0,1.22,1.21,5,5,0,0,0,1.21,1.22,5,5,0,0,0,1.21,1.21,4.84,4.84,0,0,0,1.22,1.21,4.8,4.8,0,0,0,1.21,1.21,4.84,4.84,0,0,0,1.21,1.22,4.84,4.84,0,0,0,1.22,1.21,5,5,0,0,0,1.21,1.21,4.84,4.84,0,0,0,1.21,1.22,4.84,4.84,0,0,0,1.22,1.21,5,5,0,0,0,1.21,1.21,4.84,4.84,0,0,0,1.21,1.22,4.84,4.84,0,0,0,1.22,1.21,5,5,0,0,0,1.21,1.21,208.77,208.77,0,0,0,2.43,2.43,5,5,0,0,0,1.21,1.21,208.77,208.77,0,0,0,2.43,2.43,416.68,416.68,0,0,1,2.42,2.43,416.68,416.68,0,0,0,2.43,2.42,4.84,4.84,0,0,0,1.21,1.22,5,5,0,0,0,1.21,1.21,208.77,208.77,0,0,1,2.43,2.43,5,5,0,0,0,1.21,1.21,4.84,4.84,0,0,0,1.22,1.21,416.68,416.68,0,0,0,2.42,2.43,416.68,416.68,0,0,1,2.43,2.42,208.77,208.77,0,0,0,2.43,2.43,416.68,416.68,0,0,1,2.42,2.43,4.84,4.84,0,0,0,1.22,1.21,5,5,0,0,0,1.21,1.21,208.77,208.77,0,0,0,2.43,2.43,5,5,0,0,0,1.21,1.21A208.77,208.77,0,0,0,153,266.4a5,5,0,0,0,1.21,1.21A208.77,208.77,0,0,0,156.6,270a416.68,416.68,0,0,1,2.42,2.43,416.68,416.68,0,0,0,2.43,2.42,4.84,4.84,0,0,0,1.21,1.22,5,5,0,0,0,1.21,1.21,208.77,208.77,0,0,1,2.43,2.43,5,5,0,0,0,1.21,1.21,4.84,4.84,0,0,0,1.22,1.21,5,5,0,0,0,1.21,1.22,5.32,5.32,0,0,0,.48.47C210.33,262.87,269.14,226.9,263.84,223.85Z"/><g id="Kształt_1" data-name="Kształt 1"><path class="cls-4" d="M150.87,121.69v53.38H214V121.69Zm58.23,43.67H155.72V126.54H209.1Zm-17-19.46-17-12.08v24.26l0,0Z"/></g><g id="Prostokąt_zaokrąglony_6" data-name="Prostokąt zaokrąglony 6"><path class="cls-4" d="M80.5,119.26H70.8v2.43h9.7Zm41.25,4.85H116.9v2.43h-2.43v-2.43h-2.42v2.43h-2.43v-2.43h-2.43v2.43h-2.42v-2.43H63.52A4.86,4.86,0,0,0,58.67,129v41.25a4.85,4.85,0,0,0,4.85,4.85h58.23a4.86,4.86,0,0,0,4.86-4.85V129A4.87,4.87,0,0,0,121.75,124.11ZM65.94,129h9.71v4.85H65.94Zm26.7,36.39a17,17,0,1,1,17-17A17,17,0,0,1,92.64,165.36Zm0-29.11a12.13,12.13,0,1,0,12.13,12.13A12.13,12.13,0,0,0,92.64,136.25Zm0,19.41a7.28,7.28,0,1,1,7.27-7.28A7.27,7.27,0,0,1,92.64,155.66Z"/></g><g id="Prostokąt_zaokrąglony_5-2" data-name="Prostokąt zaokrąglony 5"><path class="cls-5" d="M137,110.74a28.86,28.86,0,0,0-30.88-6.48l19.63,19.62a2.16,2.16,0,0,1,0,3.05l-13,12.95a2.16,2.16,0,0,1-3.05,0L89.94,120.1A28.84,28.84,0,1,0,137,110.74Zm47.09,66.1-35.55-35.52A28.85,28.85,0,0,1,126.81,163l35.55,35.52a10.79,10.79,0,0,0,15.25,0l6.48-6.48A10.77,10.77,0,0,0,184.09,176.84Z"/></g></g></svg>